<svg width="1000" height="1000" xmlns="http://www.w3.org/2000/svg"><path d="M258.088 333.333L223.366 888.89H771.76l-34.722-555.556h-478.95zm100.586-55.555h-27.777c0-92.048 73.286-166.667 163.69-166.667s163.69 74.62 163.69 166.667h95.433c19.966 0 36.49 15.524 37.735 35.45l36.941 591.05c1.303 20.84-14.536 38.79-35.376 40.093-.786.049-1.572.073-2.359.073H204.475c-20.88 0-37.808-16.927-37.808-37.808 0-.787.024-1.573.073-2.359l36.94-591.049c1.246-19.926 17.77-35.45 37.736-35.45h117.258zm244.048 0h55.555z" fill="#333" fill-rule="nonzero"/></svg>